<?xml version="1.0" encoding="utf-8"?>
<!-- Generator: Adobe Illustrator 27.0.0, SVG Export Plug-In . SVG Version: 6.00 Build 0)  -->
<svg version="1.1" id="图层_1" xmlns="http://www.w3.org/2000/svg" xmlns:xlink="http://www.w3.org/1999/xlink" x="0px" y="0px"
	 viewBox="636 60 930 4290" style="enable-background:new 636 60 930 4290;" xml:space="preserve">
<style type="text/css">
	.color-pattern{fill:#FF5586;}
	.color-bg{fill:#FFFFFF;}
</style>
<path class="color-pattern" d="M1056.35,85.3c214.83,0,407.8,197.93,407.8,419.37s-62.43,761.81-62.43,1540.14s62.43,1616.16,62.43,1794.63
	c0,178.47-112,468.95-379.71,468.95s-422.68-230.98-422.68-449.12s65.73-723.8,65.73-1799.59S661.76,736.03,661.76,532.77
	S820.59,85.3,1056.35,85.3z"/>
<path class="color-bg" d="M1141.57,1937.2c39.58,11.48,74.82,21.69,110.06,31.93c19.16,5.57,20.03,5.68,18.75,25.17
	c-5.92,140.77-138.26,217.11-244.45,282.6c48.44,16.23,98.49,27.28,147.91,40.27c32.94,7.97,57.01,26.61,69.85,57.29
	c9.62,29.74,25.01,58.78,25.08,90.51c-42.46-9-82.15-24.35-125.99-33.88c120.38,99.29,168.94,269.67,122.93,419.11
	c-19.46,61.19-60.41,96.99-118.8,116.47c220.96,139.31,176.47,424.44,178.04,648.82c-119.52-55.17-96.88-263.8-125.16-374.78
	c-3.9-20.57-13.9-40.7-24.5-59.06c-12.45-27.1-23.4-10.21-45.17-8.05c-19.63-52.15-43.34-101.43-72.53-149.23
	c-23.3,10.68-62.55,104.48-72.9,132.45c-14.41-8.83-29.7-32.89-42.71-11.77c-47.26,61.56-45.72,143.03-61.96,215.87
	c-16.47,67.55-5.38,160.87-77.84,197.25c-6.18-131.71-3.73-264.9-1.21-396.93c1.09-115.07,94.13-235.01,217.91-226.21
	c-80.33-67.93-129.31-148.85-141.94-253.78c-17.81-109.84,10.49-262.64,138.84-286.64c-37.18-13.4-75.85-22.37-113.65-33.9
	c-17.66-5.09-18.73-5.73-17.78-24.24c2.08-144.66,138.37-217.62,248.86-281.74c-120.96-56.78-246.79-18.16-250.23-191.34
	c45.22,12.8,86.63,24.52,128.05,36.24c0.46-0.86,0.92-1.72,1.39-2.58c-155.75-110.89-222.25-483,4.4-548.18
	c-42.64-12.48-87.16-25.51-131.17-38.39c10.74-103.38,113.36-79.06,183.52-64.96C981.3,1110.1,839.39,968.97,886.01,793.14
	c73.03,94.88,144.4,187.59,217.14,282.09c60.52-56.52,119.52-111.61,180.09-168.18c22.58,120.86-34.96,194.55-121.11,269.76
	c39.6,59.25,133.89,172.39,107.05,243.81c-45.35-12.79-91.49-25.81-137.45-38.77c5.06,132.37,0.59,264.13,2.03,396.53
	c0,35.02,3.87,39.61,41.54,47.03c31.09-89.83-23.11-297.35,53.59-356.75C1298.95,1602.37,1330.58,1890.71,1141.57,1937.2z
	 M956.84,2507.67c-21.58,160.52,64.76,303.72,219.5,351.87C1215.76,2701.3,1127.5,2527.35,956.84,2507.67z M961.63,1467.11
	c-32.6,77.86,30.79,260.03,101.49,292.54C1066.79,1663.8,1072.95,1503.94,961.63,1467.11z"/>
</svg>
