<?xml version="1.0" encoding="UTF-8"?>
<!--
  Donek 滑雪板 - 板底 (Base)
  优化版：统一使用像素单位，添加背景矩形，使用 CSS class 方便运行时颜色替换
  - .color-bg: 背景色（板底颜色 2）
  - .color-pattern: 图案色（板底颜色 1）
-->
<svg version="1.1" xmlns="http://www.w3.org/2000/svg" width="190" height="1000" viewBox="0 0 190 1000">
<style>
  .color-bg { fill: #FFFFFF; }
  .color-pattern { fill: #000000; }
</style>
<defs>
  <!-- 滑雪板外轮廓裁剪区域 -->
  <clipPath id="board-outline">
    <path transform="translate(0,1000) scale(0.1,-0.1)" d="M790 9980 c-118 -25 -209 -64 -315 -134 -221 -148 -377 -371 -441
-632 -32 -127 -36 -264 -16 -504 46 -546 96 -1512 123 -2405 15 -479 15 -2134
0 -2610 -28 -919 -75 -1825 -127 -2475 -16 -201 -13 -279 13 -409 62 -311 278
-587 566 -725 136 -65 207 -81 362 -81 156 1 217 15 360 85 375 182 607 580
581 999 -3 58 -10 160 -16 226 -45 573 -96 1604 -120 2405 -10 371 -10 2194 1
2555 25 853 72 1806 119 2395 29 367 25 435 -36 626 -52 165 -153 325 -276
439 -233 216 -509 303 -778 245z"/>
  </clipPath>
</defs>
<!-- 背景：用滑雪板轮廓裁剪 -->
<rect class="color-bg" x="0" y="0" width="190" height="1000" clip-path="url(#board-outline)"/>
<!-- 图案 -->
<g class="color-pattern" transform="translate(0,1000) scale(0.1,-0.1)" stroke="none">
<path d="M790 9980 c-118 -25 -209 -64 -315 -134 -221 -148 -377 -371 -441
-632 -32 -127 -36 -264 -16 -504 46 -546 96 -1512 123 -2405 15 -479 15 -2134
0 -2610 -28 -919 -75 -1825 -127 -2475 -16 -201 -13 -279 13 -409 62 -311 278
-587 566 -725 136 -65 207 -81 362 -81 156 1 217 15 360 85 375 182 607 580
581 999 -3 58 -10 160 -16 226 -45 573 -96 1604 -120 2405 -10 371 -10 2194 1
2555 25 853 72 1806 119 2395 29 367 25 435 -36 626 -52 165 -153 325 -276
439 -233 216 -509 303 -778 245z m-10 -1926 c129 -168 243 -312 252 -320 16
-15 32 -3 215 167 109 101 200 187 201 192 22 48 31 -123 12 -224 -19 -99 -60
-165 -176 -281 l-106 -106 44 -59 c68 -88 135 -195 175 -279 28 -60 37 -92 41
-151 4 -70 4 -75 -14 -70 -11 4 -212 61 -449 128 -236 67 -432 124 -434 125
-2 2 1 22 8 43 14 48 52 96 95 118 41 22 149 22 245 -1 40 -9 75 -15 77 -13 2
1 -56 84 -127 182 -72 99 -147 205 -167 235 -79 122 -131 270 -147 418 -7 65
2 202 14 201 3 0 112 -137 241 -305z m183 -1044 c35 -11 76 -29 91 -41 l26
-20 0 -483 0 -483 48 -21 c29 -13 51 -17 57 -11 5 5 12 144 16 317 7 305 15
377 50 445 15 28 40 57 50 57 11 0 67 -150 90 -240 41 -168 44 -414 5 -541
-35 -115 -103 -209 -185 -257 -42 -25 -55 -27 -152 -27 -102 0 -107 1 -185 39
-172 84 -312 281 -373 521 -37 147 -33 349 10 484 38 120 133 233 222 265 60
21 154 19 230 -4z m36 -1355 c238 -68 436 -126 438 -129 10 -9 -26 -164 -50
-218 -49 -111 -117 -190 -252 -293 -75 -57 -248 -165 -265 -165 -5 0 -10 -4
-10 -8 0 -4 62 -23 138 -41 164 -41 261 -72 297 -95 57 -37 114 -151 131 -262
l6 -42 -418 119 c-231 66 -432 123 -449 127 -29 8 -30 10 -27 58 15 235 127
374 464 575 59 35 108 66 108 69 0 3 -89 31 -198 63 -108 32 -214 65 -235 74
-74 32 -119 109 -135 231 -8 53 -7 62 7 62 9 0 211 -56 450 -125z m16 -1190
c131 -60 228 -157 304 -305 77 -150 104 -265 104 -445 0 -189 -38 -308 -131
-408 -64 -69 -127 -97 -218 -97 -157 0 -301 75 -411 214 -192 244 -246 633
-121 879 95 189 278 252 473 162z m22 -1310 c193 -64 368 -248 450 -473 62
-169 66 -202 70 -649 3 -263 1 -413 -5 -413 -5 0 -33 21 -61 46 -99 89 -145
227 -181 541 -11 100 -23 197 -26 215 -14 79 -49 170 -78 204 l-31 36 -37 -15
-38 -16 -10 42 c-19 76 -139 302 -160 302 -8 0 -26 -22 -40 -50 -14 -27 -40
-72 -58 -100 -18 -27 -38 -69 -44 -93 -13 -53 -19 -57 -51 -32 -38 30 -54 25
-87 -27 -60 -94 -94 -224 -125 -468 -37 -292 -65 -367 -168 -445 -17 -13 -18
7 -15 491 l3 504 29 75 c69 181 188 300 346 346 70 21 222 11 317 -21z"/>
<path d="M669 6718 c-5 -173 27 -335 84 -438 31 -56 96 -137 133 -165 l34 -26
0 113 c0 218 -34 382 -95 462 -38 50 -110 106 -136 106 -16 0 -19 -8 -20 -52z"/>
<path d="M668 4198 c-5 -66 8 -194 27 -273 49 -194 201 -362 412 -451 46 -20
67 -24 75 -16 19 19 22 228 4 312 -24 114 -85 229 -165 309 -74 75 -132 111
-238 147 -106 35 -110 34 -115 -28z"/>
</g>
</svg>