<?xml version="1.0" encoding="UTF-8"?>
<!--
  Donek 滑雪板 - 板面 (Topsheet)
  优化版：将所有颜色统一为两个 class，方便运行时替换
  - .color-primary: 大面积主体色（原 #000000）
  - .color-secondary: 文字/细节色（原 #F5F5F5 及其他灰度值）
-->
<svg version="1.1" xmlns="http://www.w3.org/2000/svg" width="190" height="1000" viewBox="0 0 190 1000">
<style>
  .color-primary { fill: #000000; }
  .color-secondary { fill: #F5F5F5; }
</style>
<!-- 主体/背景 -->
<path class="color-primary" d="M0 0 C1.48306641 0.81791016 1.48306641 0.81791016 2.99609375 1.65234375 C21.43816839 12.59981622 34.50589253 29.60271053 43 49 C43.74056641 50.68802734 43.74056641 50.68802734 44.49609375 52.41015625 C49.62677015 64.93996834 51.51483288 77.20853186 51.36328125 90.6953125 C51.35926111 91.38791294 51.35524097 92.08051338 51.35109901 92.79410172 C51.23131185 111.570315 49.77590482 130.28000464 48.39753723 148.99678421 C47.82209725 156.88224536 47.27930644 164.7700763 46.73237228 172.65755653 C46.59590963 174.6248244 46.45909285 176.59206774 46.32191849 178.55928612 C44.57398875 203.64653015 43.26278892 228.74769155 42.14068604 253.87072754 C42.00358976 256.92015311 41.86258504 259.96937121 41.72021484 263.01855469 C37.60429403 351.50372962 36.58871608 440.04244513 38 604 C38.0438382 605.95054291 38.0438382 605.95054291 38.08856201 607.94049072 C39.57861669 673.11257244 42.57495461 738.25150147 46.625 803.3125 C46.67742985 804.15529762 46.7298597 804.99809525 46.78387833 805.86643219 C47.72795139 821.00777472 48.68775057 836.14651792 49.85809326 851.27229309 C50.70620575 862.23603307 51.38953604 873.12468035 51.375 884.125 C51.37478851 884.81581665 51.37457703 885.5066333 51.37435913 886.21838379 C51.3417744 896.99821446 50.55763112 906.76890398 47 917 C46.62617188 918.134375 46.25234375 919.26875 45.8671875 920.4375 C36.27883232 947.36109334 16.72065674 968.97716816 -8.9934082 981.36547852 C-27.09907469 989.66238131 -50.26512951 991.94224745 -69.3125 985.1328125 C-70.199375 984.75898437 -71.08625 984.38515625 -72 984 C-72.804375 983.68804688 -73.60875 983.37609375 -74.4375 983.0546875 C-76.68332035 982.12672701 -78.83300526 981.09886613 -81 980 C-82.30710937 979.35417969 -82.30710937 979.35417969 -83.640625 978.6953125 C-90.44246443 975.18039548 -96.20304153 970.97932091 -102 966 C-102.82371094 965.32195313 -103.64742187 964.64390625 -104.49609375 963.9453125 C-123.52674104 947.73511996 -136.67759243 922.92899116 -139 898 C-140.05007065 876.98422378 -138.22617126 855.97137561 -136.66421509 835.03118896 C-135.93882817 825.2849283 -135.26267955 815.53516482 -134.58984375 805.78515625 C-134.48655793 804.29089615 -134.48655793 804.29089615 -134.38118553 802.76644897 C-131.04319132 754.27249846 -129.14821012 705.68632687 -127.40856552 657.11249542 C-127.315957 654.53376209 -127.22199763 651.95508091 -127.12783813 649.37640381 C-125.25652376 597.73716207 -124.82791534 546.08824543 -124.87143034 494.42063767 C-124.87520275 489.42722815 -124.87383568 484.43383849 -124.86962891 479.44042969 C-124.83780268 440.61535487 -125.15942751 401.81773665 -126 363 C-126.03344955 361.41933235 -126.06687866 359.83866426 -126.10028076 358.25799561 C-126.27426993 350.1497542 -126.49142423 342.04348096 -126.75 333.9375 C-126.78879272 332.70700928 -126.82758545 331.47651855 -126.86755371 330.20874023 C-128.60246181 276.34191899 -130.96631359 222.43665901 -134.66015625 168.66796875 C-134.72928349 167.66161503 -134.79841072 166.65526131 -134.86963272 165.61841202 C-135.5271083 156.09247943 -136.20507324 146.56827999 -136.92228985 137.04665375 C-140.09925197 94.80053296 -141.69320853 58.65220279 -115 23 C-114.44699219 22.2059375 -113.89398438 21.411875 -113.32421875 20.59375 C-112.88722656 20.0678125 -112.45023438 19.541875 -112 19 C-111.34 19 -110.68 19 -110 19 C-110 18.34 -110 17.68 -110 17 C-109.34 17 -108.68 17 -108 17 C-108 16.34 -108 15.68 -108 15 C-104.53262308 11.76334208 -100.74512839 8.90702421 -97 6 C-95.79730469 5.05833984 -95.79730469 5.05833984 -94.5703125 4.09765625 C-65.85718894 -17.21966276 -30.48209042 -16.99723211 0 0 Z" transform="translate(139,12)"/>
<!-- 文字/细节元素 -->
<path class="color-secondary" d="M0 0 C0.66 0 1.32 0 2 0 C3.79539556 2.0897227 5.47061442 4.17842082 7.125 6.375 C7.82689453 7.27992188 7.82689453 7.27992188 8.54296875 8.203125 C12 12.73858874 12 12.73858874 12 15 C12.53109375 14.51789062 13.0621875 14.03578125 13.609375 13.5390625 C14.31578125 12.90742187 15.0221875 12.27578125 15.75 11.625 C16.44609375 10.99851562 17.1421875 10.37203125 17.859375 9.7265625 C19.84508688 8.12494817 21.67954093 7.03479932 24 6 C24.50945356 11.34926236 23.14685711 13.74248744 20 18 C18.63519427 19.8440904 18.63519427 19.8440904 18 22 C18.85164142 24.30361907 18.85164142 24.30361907 20.375 26.5 C22.54621019 29.89033891 23 30.77668651 23 35 C20.23723823 34.47731534 17.6739124 33.89130413 15 33 C15.33 40.92 15.66 48.84 16 57 C16.66 57.33 17.32 57.66 18 58 C18 51.73 18 45.46 18 39 C19.485 38.505 19.485 38.505 21 38 C23.97740169 44.30018198 24.54588558 52.62126005 22.20703125 59.24609375 C21.1875 60.875 21.1875 60.875 19 63 C18.01 63 17.02 63 16 63 C16 63.66 16 64.32 16 65 C19.465 65.495 19.465 65.495 23 66 C22.86207974 71.51681039 20.51549701 74.40625944 16.921875 78.296875 C14.47457871 80.46561724 12.19460548 81.37666235 9 82 C9 82.66 9 83.32 9 84 C10.258125 84.144375 11.51625 84.28875 12.8125 84.4375 C15.42667123 84.73748686 17.47439892 85.15813297 20 86 C22 89 22 89 22 93 C20.35 93 18.7 93 17 93 C17.61875 93.7425 18.2375 94.485 18.875 95.25 C23.72657255 101.52850566 23.80315727 107.19098899 23 115 C21.98952882 117.78252903 21.13707687 118.86292313 19 121 C18.01 121 17.02 121 16 121 C16 121.66 16 122.32 16 123 C16.5775 123.20625 17.155 123.4125 17.75 123.625 C22.21161728 126.35154389 24.3684652 131.17704782 26 136 C26.22705078 138.67895508 26.22705078 138.67895508 26.1953125 141.51953125 C26.18886719 142.54111328 26.18242188 143.56269531 26.17578125 144.61523438 C26.15902344 145.67033203 26.14226563 146.72542969 26.125 147.8125 C26.11597656 148.88693359 26.10695313 149.96136719 26.09765625 151.06835938 C26.07415306 153.71246854 26.04129575 156.35611872 26 159 C20.69301357 154.76141678 19.90654585 150.80277219 18.875 144.25 C18.59284381 142.52401751 18.29916461 140.79986619 17.9921875 139.078125 C17.87214355 138.31918945 17.75209961 137.56025391 17.62841797 136.77832031 C17.42104004 136.19147461 17.21366211 135.60462891 17 135 C16.01 134.67 15.02 134.34 14 134 C12.96514123 131.68191636 11.9644586 129.34824702 11 127 C10.34 126.67 9.68 126.34 9 126 C8.731875 126.969375 8.46375 127.93875 8.1875 128.9375 C7.5996875 130.4534375 7.5996875 130.4534375 7 132 C6.01 132.33 5.02 132.66 4 133 C1.17884269 138.39154509 0.42903877 144.75993161 -0.375 150.71484375 C-1 153 -1 153 -4 155 C-4.11656783 150.79190116 -4.18737611 146.58422004 -4.25 142.375 C-4.28351562 141.18519531 -4.31703125 139.99539063 -4.3515625 138.76953125 C-4.47490239 127.7306111 -4.47490239 127.7306111 0 123 C1.91547259 121.35691113 3.81118513 120.29339061 6 119 C5.65066406 118.52949219 5.30132812 118.05898438 4.94140625 117.57421875 C4.25884766 116.64029297 4.25884766 116.64029297 3.5625 115.6875 C2.88380859 114.76517578 2.88380859 114.76517578 2.19140625 113.82421875 C-1.05939659 108.84675998 -0.56458981 102.70612102 0 97 C1.26413089 93.80073037 2.85010418 91.57494791 6 90 C4.35 89.34 2.7 88.68 1 88 C0.43121558 84.7498033 0.53214685 82.70177973 2.3828125 79.92578125 C5.54483957 76.22306124 8.55974803 73.15284944 13 71 C12.31292969 70.76925781 11.62585937 70.53851562 10.91796875 70.30078125 C3.49797649 67.61514743 3.49797649 67.61514743 0.875 64.375 C0 62 0 62 0 60 C1.65 60 3.3 60 5 60 C4.6390625 59.41734375 4.278125 58.8346875 3.90625 58.234375 C0.09324274 51.49806217 -1.24303484 45.71347511 0 38 C1.20708775 35.16011051 2.80922517 33.19077483 5 31 C3.68 30.34 2.36 29.68 1 29 C1.33 27.68 1.66 26.36 2 25 C4.31 24.34 6.62 23.68 9 23 C8.51789062 22.27554688 8.03578125 21.55109375 7.5390625 20.8046875 C6.90742187 19.83789062 6.27578125 18.87109375 5.625 17.875 C4.99851562 16.92367187 4.37203125 15.97234375 3.7265625 14.9921875 C0.82519777 9.96403052 -0.27575599 5.79087587 0 0 Z" transform="translate(33,795)"/>
<path class="color-secondary" d="M0 0 C5.20730286 4.18459198 6.00857122 7.82474354 6.8125 14.3125 C6.93302734 15.14845703 7.05355469 15.98441406 7.17773438 16.84570312 C7.47042872 18.89456354 7.73778096 20.94701677 8 23 C8.99 23.33 9.98 23.66 11 24 C14 29.22222222 14 29.22222222 14 32 C14.66 32 15.32 32 16 32 C16.66 30.02 17.32 28.04 18 26 C19.32 26 20.64 26 22 26 C22.18175781 24.75863281 22.36351562 23.51726562 22.55078125 22.23828125 C22.80412065 20.59626661 23.05805845 18.95434422 23.3125 17.3125 C23.43044922 16.49587891 23.54839844 15.67925781 23.66992188 14.83789062 C24.38668765 10.29837405 25.1486534 6.75338118 28 3 C28.33 3 28.66 3 29 3 C29.17509799 7.35365427 29.2811281 11.70639697 29.375 16.0625 C29.45041016 17.90618164 29.45041016 17.90618164 29.52734375 19.78710938 C29.69314025 30.03885952 29.69314025 30.03885952 26.2265625 34.24609375 C24.03604615 36.40911554 21.78970059 37.71573789 19 39 C19.34933594 39.47050781 19.69867188 39.94101563 20.05859375 40.42578125 C20.51363281 41.04839844 20.96867187 41.67101562 21.4375 42.3125 C21.88996094 42.92738281 22.34242188 43.54226562 22.80859375 44.17578125 C25.17433713 47.79808341 25.22077168 51.15549739 25.3125 55.375 C25.34988281 56.49648437 25.38726562 57.61796875 25.42578125 58.7734375 C24.91218542 62.66545728 23.80696582 64.29924369 21 67 C20.01 67 19.02 67 18 67 C18 67.66 18 68.32 18 69 C21.465 69.495 21.465 69.495 25 70 C24.48556688 74.42412482 23.80175182 77.49781022 21 81 C18.09982399 83.16869289 15.09042816 85.11464446 12 87 C12.68707031 87.24234375 13.37414062 87.4846875 14.08203125 87.734375 C14.98308594 88.06953125 15.88414062 88.4046875 16.8125 88.75 C18.15248047 89.23726562 18.15248047 89.23726562 19.51953125 89.734375 C22.28950728 91.1477171 23.46010601 92.31925432 25 95 C25 95.99 25 96.98 25 98 C23.02 97.67 21.04 97.34 19 97 C19.495 97.495 19.495 97.495 20 98 C25.11679267 105.35538946 25.84000598 111.11993676 25 120 C23.94006399 122.5086695 22.80276651 123.91555122 21 126 C21 126.66 21 127.32 21 128 C22.32 128.33 23.64 128.66 25 129 C23.125 132.875 23.125 132.875 22 134 C20.00041636 134.04080783 17.99954746 134.04254356 16 134 C16.72316406 135.10408203 16.72316406 135.10408203 17.4609375 136.23046875 C18.09257812 137.20628906 18.72421875 138.18210938 19.375 139.1875 C20.00148437 140.15042969 20.62796875 141.11335937 21.2734375 142.10546875 C24.64164707 147.75217303 25.21860264 151.55122214 25 158 C20.74790208 153.87675353 16.86364295 149.48717034 13 145 C9.60807637 145.59283621 7.7892243 146.76743189 5.25 149.0625 C4.63640625 149.61035156 4.0228125 150.15820312 3.390625 150.72265625 C2.93171875 151.14417969 2.4728125 151.56570312 2 152 C1.3894715 144.91786938 1.3894715 144.91786938 3.1484375 142.2734375 C3.61507812 141.77070313 4.08171875 141.26796875 4.5625 140.75 C7.22801196 138.35521676 7.22801196 138.35521676 7 135.9375 C5.97479095 133.87712604 5.97479095 133.87712604 4.4375 131.5625 C2.85789154 128.74667622 2.7282529 127.17038287 3 124 C5.31 124.33 7.62 124.66 10 125 C10 117.08 10 109.16 10 101 C9.34 101 8.68 101 8 101 C8.03480469 102.12019531 8.06960937 103.24039063 8.10546875 104.39453125 C8.13360839 105.86717251 8.16090837 107.33982998 8.1875 108.8125 C8.21263672 109.55048828 8.23777344 110.28847656 8.26367188 111.04882812 C8.33834499 116.54974762 8.33834499 116.54974762 6.48828125 119.01171875 C5.99714844 119.33785156 5.50601563 119.66398437 5 120 C1.80610881 114.01145402 1.24945083 108.74479996 2 102 C3.25 98.375 3.25 98.375 5 96 C7.1875 95.125 7.1875 95.125 9 95 C9 94.34 9 93.68 9 93 C8.195625 93.020625 7.39125 93.04125 6.5625 93.0625 C4 93 4 93 3 92 C3.30585847 86.69845314 4.2350916 83.7649084 8 80 C13.40540541 76 13.40540541 76 16 76 C16 75.34 16 74.68 16 74 C15.39671875 73.98582031 14.7934375 73.97164063 14.171875 73.95703125 C7.6100803 73.56544028 7.6100803 73.56544028 4.4375 70.625 C3 68 3 68 3 65 C4.65 65 6.3 65 8 65 C7.47599609 64.18595703 7.47599609 64.18595703 6.94140625 63.35546875 C6.48636719 62.64003906 6.03132812 61.92460938 5.5625 61.1875 C4.88380859 60.12595703 4.88380859 60.12595703 4.19140625 59.04296875 C1.25261582 54.00366582 1.53624476 48.664439 2 43 C3.25 39.875 3.25 39.875 5 38 C7.109375 37.3828125 7.109375 37.3828125 9 37 C8.51789063 36.40832031 8.03578125 35.81664062 7.5390625 35.20703125 C6.90742188 34.41683594 6.27578125 33.62664062 5.625 32.8125 C4.99851563 32.03519531 4.37203125 31.25789063 3.7265625 30.45703125 C0.73504328 26.19986928 -0.2532124 22.66251022 -0.1953125 17.48046875 C-0.18564453 15.9480957 -0.18564453 15.9480957 -0.17578125 14.38476562 C-0.15902344 13.32966797 -0.14226562 12.27457031 -0.125 11.1875 C-0.11597656 10.11306641 -0.10695312 9.03863281 -0.09765625 7.93164062 C-0.07415306 5.28753146 -0.04129575 2.64388128 0 0 Z" transform="translate(132,63)"/>
<path class="color-secondary" d="M0 0 C5.84337138 1.25215101 8.73102506 4.21899104 12 9 C13.28317892 12.84953676 13.06643637 15.94738135 13 20 C7.08215617 18.73189061 4.41406916 15.7151965 1 11 C-0.20272819 8.59454362 -0.10071472 7.05003047 -0.0625 4.375 C-0.05347656 3.55773437 -0.04445312 2.74046875 -0.03515625 1.8984375 C-0.02355469 1.27195312 -0.01195312 0.64546875 0 0 Z" transform="translate(38,891)"/>
<path class="color-secondary" d="M0 0 C5.22759734 0.65795622 7.25669977 2.65266611 10.55078125 6.58984375 C12.92343264 10.53573569 13.06488635 14.47649428 13 19 C8.07395127 18.56534864 5.48108776 16.40373025 2 13 C-0.50933414 8.77975622 -0.1619272 4.77685234 0 0 Z" transform="translate(140,106)"/>
<path class="color-secondary" d="M0 0 C0.66 0.33 1.32 0.66 2 1 C2.33 0.67 2.66 0.34 3 0 C3.66 0.33 4.32 0.66 5 1 C4.45276317 4.37462715 3.9451 6.08235 2 9 C2.15688424 11.12816413 2.15688424 11.12816413 3 13 C3.66 13.33 4.32 13.66 5 14 C5 14.66 5 15.32 5 16 C4.34 16 3.68 16 3 16 C2.73067479 20.65052872 2.73067479 20.65052872 4 25 C3.39421747 27.01927511 2.73080266 29.02253397 2 31 C2.66 31 3.32 31 4 31 C4 31.66 4 32.32 4 33 C2.35 32.67 0.7 32.34 -1 32 C-1 29.36 -1 26.72 -1 24 C-1.66 24 -2.32 24 -3 24 C-3 23.34 -3 22.68 -3 22 C-2.34 22 -1.68 22 -1 22 C-0.61781233 20.34385343 -0.28604898 18.67542976 0 17 C-0.33 16.67 -0.66 16.34 -1 16 C-1.07226502 14.14712498 -1.0838122 12.29166122 -1.0625 10.4375 C-1.05347656 9.42558594 -1.04445313 8.41367188 -1.03515625 7.37109375 C-1.02355469 6.58863281 -1.01195313 5.80617188 -1 5 C-0.34 5 0.32 5 1 5 C0.67 3.35 0.34 1.7 0 0 Z" transform="translate(121,62)"/>
<path class="color-secondary" d="M0 0 C0.08678303 3.95819611 0.14031733 7.91614934 0.1875 11.875 C0.21263672 13.00292969 0.23777344 14.13085938 0.26367188 15.29296875 C0.27817383 16.90751953 0.27817383 16.90751953 0.29296875 18.5546875 C0.3086792 19.54968262 0.32438965 20.54467773 0.34057617 21.56982422 C0.22818604 22.37178223 0.1157959 23.17374023 0 24 C-0.99 24.66 -1.98 25.32 -3 26 C-3.09087891 25.11248047 -3.09087891 25.11248047 -3.18359375 24.20703125 C-3.62069714 20.08481006 -4.13903055 16.05885597 -5 12 C-5 11.34 -5 10.68 -5 10 C-4.34 10 -3.68 10 -3 10 C-2.76571687 5.2102679 -2.76571687 5.2102679 -5 1 C-2 0 -2 0 0 0 Z" transform="translate(70,807)"/>
<path class="color-secondary" d="M0 0 C1.98 0.495 1.98 0.495 4 1 C4.33 7.6 4.66 14.2 5 21 C3.35 20.67 1.7 20.34 0 20 C-0.97714021 16.2000103 -0.75989103 13.79945515 0 10 C0.09235323 6.66502214 0.05828942 3.33545011 0 0 Z" transform="translate(66,902)"/>
<path class="color-secondary" d="M0 0 C3.37991014 3.11307513 5.82236619 5.50358001 7 10 C7.07646165 12.3320802 7.09143299 14.66845878 7 17 C3.83884224 15.63016497 3.0072908 15.0109362 1 12 C0.5859375 9.08203125 0.5859375 9.08203125 0.375 5.8125 C0.30023438 4.72582031 0.22546875 3.63914063 0.1484375 2.51953125 C0.09945312 1.68808594 0.05046875 0.85664063 0 0 Z" transform="translate(146,167)"/>
<path class="color-secondary" d="M0 0 C3.84375 1.7421875 3.84375 1.7421875 5.25 4.0625 C6.2734742 8.07110729 6.16131784 11.8863951 6 16 C0.05446359 10.20691325 0.05446359 10.20691325 -0.09765625 6.8359375 C-0.08605469 6.02382813 -0.07445312 5.21171875 -0.0625 4.375 C-0.05347656 3.55773437 -0.04445312 2.74046875 -0.03515625 1.8984375 C-0.02355469 1.27195312 -0.01195312 0.64546875 0 0 Z" transform="translate(38,833)"/>
<path class="color-secondary" d="M0 0 C0.99 0 1.98 0 3 0 C3.33 6.27 3.66 12.54 4 19 C1.525 18.01 1.525 18.01 -1 17 C-1.8125 14.375 -1.8125 14.375 -2 12 C-1.34 12 -0.68 12 0 12 C-0.08378906 11.30132813 -0.16757813 10.60265625 -0.25390625 9.8828125 C-0.35574219 8.97273437 -0.45757812 8.06265625 -0.5625 7.125 C-0.66691406 6.22007812 -0.77132812 5.31515625 -0.87890625 4.3828125 C-1 2 -1 2 0 0 Z" transform="translate(67,925)"/>
<path class="color-secondary" d="M0 0 C1.98 0.495 1.98 0.495 4 1 C4 5.62 4 10.24 4 15 C2.68 15.33 1.36 15.66 0 16 C-1.37830469 12.17137587 -0.64545242 8.94443145 0 5 C0 4.01 0 3.02 0 2 C0 1.34 0 0.68 0 0 Z" transform="translate(66,866)"/>
<path class="color-secondary" d="M0 0 C1.32 1.32 2.64 2.64 4 4 C3.01 4.495 3.01 4.495 2 5 C1.91053767 8.22064378 2.17267301 10.89752377 3 14 C3 14.99 3 15.98 3 17 C2.01 17.33 1.02 17.66 0 18 C-0.19484938 15.56288386 -0.38115178 13.12562602 -0.5625 10.6875 C-0.64661133 9.65206055 -0.64661133 9.65206055 -0.73242188 8.59570312 C-0.96581505 5.37487726 -1.03224218 3.09672655 0 0 Z" transform="translate(121,108)"/>
<path class="color-secondary" d="M0 0 C1.32 0.66 2.64 1.32 4 2 C4 4.64 4 7.28 4 10 C2.35 9.67 0.7 9.34 -1 9 C-1.09765625 2.84765625 -1.09765625 2.84765625 -1 1 C-0.67 0.67 -0.34 0.34 0 0 Z" transform="translate(66,944)"/>
<path class="color-secondary" d="M0 0 C0.99 0.495 0.99 0.495 2 1 C2.33 0.67 2.66 0.34 3 0 C3.66 0.33 4.32 0.66 5 1 C4.45276317 4.37462715 3.9451 6.08235 2 9 C2.3121764 11.64632287 2.3121764 11.64632287 3 14 C2.01 13.67 1.02 13.34 0 13 C0 8.71 0 4.42 0 0 Z" transform="translate(121,62)"/>
<path class="color-secondary" d="M0 0 C0.99 0.33 1.98 0.66 3 1 C4.26264601 5.29299643 3.62950412 7.87831311 2 12 C2.66 12 3.32 12 4 12 C4 12.66 4 13.32 4 14 C2.68 13.67 1.36 13.34 0 13 C0 8.71 0 4.42 0 0 Z" transform="translate(121,81)"/>
<path class="color-secondary" d="M0 0 C2.475 0.495 2.475 0.495 5 1 C5 2.98 5 4.96 5 7 C3.35 6.67 1.7 6.34 0 6 C0 4.02 0 2.04 0 0 Z" transform="translate(65,855)"/>
<path class="color-secondary" d="M0 0 C0.99 0.33 1.98 0.66 3 1 C2.814375 1.7425 2.62875 2.485 2.4375 3.25 C2.00796892 5.94990963 2.14877026 7.44631077 3 10 C0 10 0 10 -2 9 C-2 8.34 -2 7.68 -2 7 C-1.34 7 -0.68 7 0 7 C0 4.69 0 2.38 0 0 Z" transform="translate(67,842)"/>
<path class="color-secondary" d="M0 0 C1.32 0.33 2.64 0.66 4 1 C4.08096803 2.45742463 4.13917774 3.91612807 4.1875 5.375 C4.22230469 6.18710937 4.25710937 6.99921875 4.29296875 7.8359375 C4.19628906 8.55007813 4.09960938 9.26421875 4 10 C3.01 10.66 2.02 11.32 1 12 C1.01160156 11.30132813 1.02320312 10.60265625 1.03515625 9.8828125 C1.04417969 8.97273437 1.05320312 8.06265625 1.0625 7.125 C1.07410156 6.22007812 1.08570312 5.31515625 1.09765625 4.3828125 C1.16249257 1.9831415 1.16249257 1.9831415 0 0 Z" transform="translate(66,821)"/>
<path class="color-secondary" d="M0 0 C0.99 0 1.98 0 3 0 C3 2.64 3 5.28 3 8 C0.525 7.01 0.525 7.01 -2 6 C-1.34 4.02 -0.68 2.04 0 0 Z" transform="translate(67,884)"/>
<path class="color-secondary" d="M0 0 C0.66 0 1.32 0 2 0 C2 1.32 2 2.64 2 4 C2.66 4.33 3.32 4.66 4 5 C3 6 3 6 -0.0625 6.0625 C-1.031875 6.041875 -2.00125 6.02125 -3 6 C-3.33 5.34 -3.66 4.68 -4 4 C-2.68 4 -1.36 4 0 4 C0 2.68 0 1.36 0 0 Z" transform="translate(68,833)"/>
<path class="color-secondary" d="M0 0 C2.4375 0.75 2.4375 0.75 5 2 C5.8125 4.125 5.8125 4.125 6 6 C4.68 5.34 3.36 4.68 2 4 C2 3.34 2 2.68 2 2 C1.01 2.33 0.02 2.66 -1 3 C-0.67 2.01 -0.34 1.02 0 0 Z" transform="translate(120,103)"/>
<path class="color-secondary" d="M0 0 C1.32 0.66 2.64 1.32 4 2 C3.34 3.32 2.68 4.64 2 6 C1.01 5.01 0.02 4.02 -1 3 C-0.67 2.01 -0.34 1.02 0 0 Z" transform="translate(66,944)"/>
<path class="color-secondary" d="M0 0 C2.475 0.495 2.475 0.495 5 1 C4 4 4 4 3 5 C2.01 5 1.02 5 0 5 C0 3.35 0 1.7 0 0 Z" transform="translate(65,818)"/>
</svg>