<?xml version="1.0" encoding="utf-8"?>
<!-- Generator: Adobe Illustrator 27.0.0, SVG Export Plug-In . SVG Version: 6.00 Build 0)  -->
<svg version="1.1" id="图层_1" xmlns="http://www.w3.org/2000/svg" xmlns:xlink="http://www.w3.org/1999/xlink" x="0px" y="0px"
	 viewBox="636 60 930 4290" style="enable-background:new 636 60 930 4290;" xml:space="preserve">
<style type="text/css">
	.color-primary{fill:#FF5586;}
	.color-secondary{fill:#FFFFFF;}
	.st2{fill:none;}
	.st3{font-family:'BrushScriptBT-Regular';}
	.st4{font-size:27.3144px;}
</style>
<path class="color-primary" d="M1127.25,85.3c214.83,0,407.8,197.93,407.8,419.37s-62.43,761.81-62.43,1540.14s62.43,1616.16,62.43,1794.63
	c0,178.47-112,468.95-379.71,468.95s-422.68-230.98-422.68-449.12s65.73-723.8,65.73-1799.59S732.66,736.03,732.66,532.77
	S891.49,85.3,1127.25,85.3z"/>
<path class="color-secondary" d="M960.94,3718.61c9.82,2.85,18.56,5.38,27.3,7.92c4.75,1.38,4.97,1.41,4.65,6.24
	c-1.47,34.91-34.29,53.85-60.62,70.09c12.01,4.02,24.43,6.77,36.68,9.99c8.17,1.98,14.14,6.6,17.32,14.21
	c2.39,7.38,6.2,14.58,6.22,22.45c-10.53-2.23-20.37-6.04-31.25-8.4c29.86,24.62,41.9,66.88,30.49,103.94
	c-4.83,15.18-14.98,24.06-29.46,28.89c54.8,34.55,43.77,105.27,44.15,160.91c-29.64-13.68-24.03-65.42-31.04-92.95
	c-0.97-5.1-3.45-10.09-6.08-14.65c-3.09-6.72-5.8-2.53-11.2-2c-4.87-12.93-10.75-25.15-17.99-37.01
	c-5.78,2.65-15.51,25.91-18.08,32.85c-3.57-2.19-7.37-8.16-10.59-2.92c-11.72,15.27-11.34,35.47-15.37,53.54
	c-4.08,16.75-1.34,39.9-19.3,48.92c-1.53-32.67-0.92-65.7-0.3-98.44c0.27-28.54,23.35-58.29,54.04-56.1
	c-19.92-16.85-32.07-36.92-35.2-62.94c-4.42-27.24,2.6-65.14,34.43-71.09c-9.22-3.32-18.81-5.55-28.19-8.41
	c-4.38-1.26-4.65-1.42-4.41-6.01c0.52-35.88,34.32-53.97,61.72-69.88c-30-14.08-61.21-4.5-62.06-47.45
	c11.21,3.17,21.49,6.08,31.76,8.99c0.11-0.21,0.23-0.43,0.34-0.64c-38.63-27.5-55.12-119.79,1.09-135.95
	c-10.58-3.09-21.62-6.33-32.53-9.52c2.66-25.64,28.12-19.61,45.51-16.11c-21.79-33.58-56.99-68.58-45.43-112.19
	c18.11,23.53,35.81,46.52,53.85,69.96c15.01-14.02,29.64-27.68,44.66-41.71c5.6,29.97-8.67,48.25-30.04,66.9
	c9.82,14.69,33.21,42.76,26.55,60.47c-11.25-3.17-22.69-6.4-34.09-9.62c1.26,32.83,0.15,65.51,0.5,98.34
	c0,8.68,0.96,9.82,10.3,11.66c7.71-22.28-5.73-73.75,13.29-88.48C999.97,3635.57,1007.81,3707.08,960.94,3718.61z M915.13,3860.09
	c-5.35,39.81,16.06,75.33,54.44,87.27C979.34,3908.11,957.45,3864.97,915.13,3860.09z M916.31,3602.02
	c-8.08,19.31,7.64,64.49,25.17,72.55C942.39,3650.8,943.92,3611.15,916.31,3602.02z"/>
<rect x="1030.82" y="3805.89" class="st2" width="31.53" height="328.95"/>
<text transform="matrix(6.123234e-17 -1 1 6.123234e-17 1053.4954 4134.8359)" class="color-secondary st3 st4">Hakuna Matata I love U China</text>
<path class="color-secondary" d="M1335.08,786.1c-9.82-2.85-18.56-5.38-27.3-7.92c-4.75-1.38-4.97-1.41-4.65-6.24
	c1.47-34.91,34.29-53.85,60.62-70.09c-12.01-4.02-24.43-6.77-36.68-9.99c-8.17-1.98-14.14-6.6-17.32-14.21
	c-2.39-7.38-6.2-14.58-6.22-22.45c10.53,2.23,20.37,6.04,31.25,8.4c-29.86-24.62-41.9-66.88-30.49-103.94
	c4.83-15.18,14.98-24.06,29.46-28.89c-54.8-34.55-43.77-105.27-44.15-160.91c29.64,13.68,24.03,65.42,31.04,92.95
	c0.97,5.1,3.45,10.09,6.08,14.65c3.09,6.72,5.8,2.53,11.2,2c4.87,12.93,10.75,25.15,17.99,37.01c5.78-2.65,15.51-25.91,18.08-32.85
	c3.57,2.19,7.37,8.16,10.59,2.92c11.72-15.27,11.34-35.47,15.37-53.54c4.08-16.75,1.34-39.9,19.3-48.92
	c1.53,32.67,0.92,65.7,0.3,98.44c-0.27,28.54-23.35,58.29-54.04,56.1c19.92,16.85,32.07,36.92,35.2,62.94
	c4.42,27.24-2.6,65.14-34.43,71.09c9.22,3.32,18.81,5.55,28.19,8.41c4.38,1.26,4.65,1.42,4.41,6.01
	c-0.52,35.88-34.32,53.97-61.72,69.88c30,14.08,61.21,4.5,62.06,47.45c-11.21-3.17-21.49-6.08-31.76-8.99
	c-0.11,0.21-0.23,0.43-0.34,0.64c38.63,27.5,55.12,119.79-1.09,135.95c10.58,3.1,21.62,6.33,32.53,9.52
	c-2.66,25.64-28.12,19.61-45.51,16.11c21.79,33.58,56.99,68.58,45.43,112.19c-18.11-23.53-35.81-46.52-53.85-69.96
	c-15.01,14.02-29.64,27.68-44.66,41.71c-5.6-29.97,8.67-48.25,30.04-66.9c-9.82-14.69-33.21-42.76-26.55-60.47
	c11.25,3.17,22.69,6.4,34.09,9.62c-1.26-32.83-0.15-65.51-0.5-98.34c0-8.68-0.96-9.82-10.3-11.66
	c-7.71,22.28,5.73,73.75-13.29,88.48C1296.05,869.14,1288.2,797.63,1335.08,786.1z M1380.89,644.61
	c5.35-39.81-16.06-75.33-54.44-87.27C1316.68,596.59,1338.57,639.73,1380.89,644.61z M1379.7,902.68
	c8.08-19.31-7.64-64.49-25.17-72.55C1353.62,853.9,1352.1,893.55,1379.7,902.68z"/>
<rect x="1233.67" y="369.87" class="st2" width="31.53" height="328.95"/>
<text transform="matrix(6.123234e-17 1 -1 6.123234e-17 1242.5205 369.8652)" class="color-secondary st3 st4">Hakuna Matata I love U China</text>
</svg>
